# xmcd
#
# Track frame offsets: 
#        150
#        15290
#        35606
#        52772
#        74448
#        88923
#        106854
#        125821
#        142708
#        158721
#        169301
#        186944
#        235280
#
# Disc length: 3487 seconds
#
# Revision: 0
# Processed by: cddbd v1.5.2PL0 Copyright (c) Steve Scherf et al.
# Submitted via: ExactAudioCopy v0.99pb3
#
DISCID=a80d9d0d
DTITLE=Just Country - Live
DYEAR=1900
DGENRE=Country
TTITLE0=Even Cowboys Like A Little Bit Of Rock-n-Roll
TTITLE1=Margaritaville
TTITLE2=Tougher Than The Rest
TTITLE3=South Bound Train
TTITLE4=Amarillo By Morning
TTITLE5=Old Hippie
TTITLE6=I Swear
TTITLE7=Let's Chase Each Other ('Round The Room Tonight)
TTITLE8=Adalida
TTITLE9=Mama Tried
TTITLE10=Silver Wings
TTITLE11=Orange Blossom Special
TTITLE12=Will The Circle Be Unbroken
EXTD=
EXTT0=
EXTT1=
EXTT2=
EXTT3=
EXTT4=
EXTT5=
EXTT6=
EXTT7=
EXTT8=
EXTT9=
EXTT10=
EXTT11=
EXTT12=
PLAYORDER=
